<svg width="16" height="16" viewBox="0 0 16 16" fill="none" xmlns="http://www.w3.org/2000/svg">
<path fill-rule="evenodd" clip-rule="evenodd" d="M8.37512 3.33301C8.37512 3.1259 8.20723 2.95801 8.00012 2.95801C7.79302 2.95801 7.62512 3.1259 7.62512 3.33301V7.62476H3.3335C3.12639 7.62476 2.9585 7.79265 2.9585 7.99976C2.9585 8.20686 3.12639 8.37476 3.3335 8.37476H7.62512V12.6663C7.62512 12.8734 7.79302 13.0413 8.00012 13.0413C8.20723 13.0413 8.37512 12.8734 8.37512 12.6663V8.37476H12.6668C12.8739 8.37476 13.0418 8.20686 13.0418 7.99976C13.0418 7.79265 12.8739 7.62476 12.6668 7.62476H8.37512V3.33301Z" fill="white"/>
</svg>
